<?xml version="1.0" standalone="no"?>
<!DOCTYPE svg PUBLIC "-//W3C//DTD SVG 20010904//EN"
 "http://www.w3.org/TR/2001/REC-SVG-20010904/DTD/svg10.dtd">
<svg version="1.0" xmlns="http://www.w3.org/2000/svg"
 width="180.000000pt" height="70.000000pt" viewBox="0 0 1000.000000 800.000000"
 preserveAspectRatio="xMidYMid meet">

<g transform="translate(0.000000,1024.000000) scale(0.100000,-0.100000)"
fill="#000000" stroke="none">
<path d="M1413 6658 c-20 -22 -209 -371 -315 -582 l-50 -100 4 -110 c3 -97 7
-118 31 -168 16 -32 46 -73 68 -91 l39 -34 0 -596 0 -597 -53 0 c-40 0 -58 -5
-70 -18 -23 -25 -21 -78 3 -102 20 -20 33 -20 854 -20 l835 0 3 -217 c3 -209
4 -220 27 -260 31 -54 81 -89 147 -103 34 -7 172 -10 396 -8 l344 3 49 26 c30
15 62 42 80 68 l30 43 3 681 2 681 -25 52 c-32 65 -79 97 -153 104 l-53 5 0
123 0 123 46 41 c25 22 58 64 73 92 23 45 27 65 30 171 l4 120 -85 165 c-163
314 -255 485 -275 507 l-20 23 -975 0 -974 0 -20 -22z m137 -813 c0 -83 -37
-145 -105 -176 -122 -56 -258 26 -272 164 l-6 57 192 0 191 0 0 -45z m522 -9
c-4 -57 -19 -90 -59 -128 -83 -79 -205 -76 -285 9 -30 32 -58 101 -58 144 l0
29 203 -2 202 -3 -3 -49z m528 22 c0 -119 -86 -208 -200 -208 -113 0 -210 98
-210 213 l0 27 205 0 205 0 0 -32z m530 -6 c0 -56 -45 -138 -91 -169 -98 -64
-241 -26 -294 78 -9 16 -19 52 -22 80 l-6 49 207 0 206 0 0 -38z m508 -22 c-3
-48 -10 -67 -35 -97 -61 -77 -148 -102 -231 -68 -77 33 -112 86 -112 170 l0
55 191 0 191 0 -4 -60z m-1981 -220 c65 -61 123 -83 213 -83 90 0 167 26 228
79 l42 36 35 -31 c79 -69 180 -98 278 -80 68 12 155 52 175 80 17 24 38 20 98
-19 70 -44 126 -62 200 -62 82 0 158 29 219 82 l46 41 42 -41 c51 -50 120 -82
193 -89 l54 -6 0 -103 0 -104 -293 0 c-332 0 -336 -1 -392 -79 l-30 -43 -3
-404 -3 -404 -109 0 -110 0 0 394 c0 364 -1 395 -18 416 l-18 22 -422 0 c-392
1 -424 -1 -442 -17 -19 -17 -20 -33 -20 -417 l0 -399 -152 3 -153 3 -1 566 0
567 63 5 c77 6 161 44 200 92 15 18 30 34 32 34 2 1 24 -17 48 -39z m2036
-437 c8 -10 17 -40 18 -68 l3 -50 -412 -3 -412 -2 0 52 c0 93 -22 88 410 88
346 0 378 -1 393 -17z m-1273 -443 l0 -350 -340 0 -340 0 0 350 0 350 340 0
340 0 0 -350z m1292 -201 c2 -220 1 -403 -1 -405 -2 -2 -188 -4 -413 -4 l-408
0 0 405 0 405 410 0 410 0 2 -401z m-2 -618 c0 -74 -2 -81 -26 -100 -26 -20
-38 -21 -386 -21 l-359 0 -24 25 c-22 21 -25 33 -25 100 l0 75 410 0 410 0 0
-79z"/>
<path d="M3238 3938 c-52 -41 -12 -108 64 -108 56 0 88 22 88 60 0 43 -23 60
-84 60 -29 0 -59 -6 -68 -12z"/>
<path d="M8420 6399 c-39 -15 -60 -49 -60 -97 0 -54 12 -77 50 -97 91 -47 186
28 160 126 -18 64 -83 94 -150 68z"/>
<path d="M4070 5855 l0 -525 105 0 105 0 2 353 3 352 210 -352 210 -352 118
-1 117 0 0 525 0 525 -105 0 -105 0 -2 -357 -3 -357 -218 357 -219 357 -109 0
-109 0 0 -525z"/>
<path d="M5334 6101 c-186 -48 -296 -215 -281 -426 11 -156 73 -257 194 -317
56 -28 79 -33 157 -36 105 -4 175 16 249 72 36 28 107 125 107 148 0 4 -39 8
-86 8 -85 0 -87 -1 -125 -34 -21 -20 -54 -38 -74 -42 -53 -10 -123 1 -154 23
-34 25 -71 98 -71 140 l0 33 261 0 262 0 -6 83 c-7 108 -35 182 -95 246 -63
66 -139 101 -235 106 -39 2 -86 1 -103 -4z m166 -164 c38 -25 65 -66 75 -114
l7 -33 -167 0 -167 0 7 33 c18 86 78 137 160 137 37 0 61 -6 85 -23z"/>
<path d="M6083 6091 c-134 -46 -210 -158 -220 -328 -16 -241 96 -398 293 -411
100 -6 161 15 215 76 l42 47 -6 -81 c-5 -90 -23 -132 -65 -163 -63 -44 -180
-39 -236 10 -32 28 -38 29 -129 29 l-95 0 8 -35 c26 -114 146 -176 340 -178
126 0 199 23 266 85 78 72 86 107 96 393 5 138 6 319 2 403 l-6 152 -73 0
c-40 0 -80 3 -89 6 -13 5 -16 -2 -16 -37 l0 -43 -28 27 c-66 63 -196 84 -299
48z m218 -162 c32 -16 78 -79 90 -121 15 -56 7 -154 -15 -201 -27 -55 -79 -87
-141 -87 -69 0 -114 25 -145 80 -21 38 -25 58 -25 130 0 71 4 92 25 128 37 65
94 95 160 85 19 -3 42 -9 51 -14z"/>
<path d="M6968 6091 c-108 -35 -179 -98 -227 -200 -24 -51 -26 -67 -26 -181 0
-114 2 -130 27 -182 37 -79 96 -140 171 -174 56 -26 72 -29 172 -29 98 0 116
3 166 26 117 55 190 158 212 298 28 187 -44 341 -198 417 -93 46 -205 56 -297
25z m185 -155 c42 -17 83 -66 97 -114 15 -55 12 -173 -5 -223 -16 -45 -46 -83
-80 -101 -59 -32 -138 -26 -184 15 -82 74 -93 288 -20 382 41 51 125 70 192
41z"/>
<path d="M7813 6096 c-107 -35 -195 -116 -235 -215 -18 -47 -22 -76 -23 -176
0 -110 2 -125 27 -177 62 -133 168 -200 323 -206 113 -5 181 18 256 86 52 47
99 126 99 170 0 21 -3 22 -89 22 l-89 0 -19 -37 c-39 -80 -149 -110 -224 -60
-56 37 -82 103 -82 207 0 76 3 96 28 145 22 46 36 61 69 76 80 36 160 16 199
-52 l22 -39 93 0 c92 0 93 0 87 23 -34 111 -95 180 -194 218 -70 27 -189 34
-248 15z"/>
<path d="M8360 5720 l0 -390 105 0 105 0 -2 388 -3 387 -102 3 -103 3 0 -391z"/>
<path d="M8950 6092 c-72 -24 -94 -36 -142 -80 -82 -74 -120 -171 -120 -303 1
-131 38 -225 116 -297 68 -63 124 -84 232 -90 139 -7 229 28 312 123 67 76 87
139 87 275 0 110 -1 118 -33 182 -40 82 -111 148 -190 179 -79 30 -190 35
-262 11z m208 -169 c15 -11 38 -40 52 -64 22 -39 25 -56 25 -144 0 -88 -3
-105 -25 -144 -31 -54 -66 -82 -117 -91 -118 -20 -203 75 -203 226 0 119 36
200 105 230 42 20 129 13 163 -13z"/>
<path d="M6369 5031 c-48 -49 -34 -142 26 -169 90 -41 179 30 154 123 -21 77
-123 103 -180 46z"/>
<path d="M4070 4530 l0 -520 105 0 105 0 0 205 0 205 185 0 185 0 0 90 0 90
-185 0 -185 0 0 130 0 130 221 0 222 0 -7 53 c-3 28 -6 71 -6 95 l0 42 -320 0
-320 0 0 -520z"/>
<path d="M5046 4960 c-36 -50 -66 -93 -66 -95 0 -3 32 -5 72 -5 l72 0 97 95
96 95 -102 0 -103 0 -66 -90z"/>
<path d="M6700 4530 l0 -520 100 0 100 0 0 520 0 520 -100 0 -100 0 0 -520z"/>
<path d="M5003 4770 c-90 -18 -165 -77 -202 -160 -36 -78 -34 -80 69 -80 l90
0 13 33 c26 60 79 85 157 72 56 -9 90 -44 90 -93 0 -22 -6 -45 -14 -51 -8 -7
-75 -23 -148 -35 -150 -26 -189 -40 -241 -85 -94 -83 -87 -258 15 -332 48 -34
134 -53 202 -45 59 7 142 45 176 81 l24 25 10 -31 c19 -55 56 -74 141 -72 41
0 79 4 84 8 6 3 11 37 11 76 l0 69 -29 0 -29 0 -4 223 c-3 204 -5 225 -25 262
-41 76 -99 116 -198 134 -67 12 -131 13 -192 1z m217 -463 c0 -114 -52 -167
-163 -167 -72 0 -107 28 -107 85 0 48 33 80 101 99 30 8 77 21 104 29 28 8 53
15 58 16 4 1 7 -27 7 -62z"/>
<path d="M5810 4765 c-193 -55 -295 -230 -263 -454 26 -175 119 -276 287 -311
166 -34 352 57 399 194 27 78 29 76 -75 76 l-93 -1 -18 -39 c-32 -69 -132
-100 -207 -62 -73 36 -111 151 -92 277 18 112 63 165 149 172 59 5 108 -18
140 -66 l23 -34 90 -1 c58 -1 90 3 90 10 0 38 -39 114 -80 155 -81 81 -231
117 -350 84z"/>
<path d="M6350 4390 l0 -380 100 0 100 0 0 380 0 380 -100 0 -100 0 0 -380z"/>
</g>
</svg>
